<?xml version="1.0" encoding="utf-8"?>
<!-- Generator: Adobe Illustrator 17.1.0, SVG Export Plug-In . SVG Version: 6.00 Build 0)  -->
<!DOCTYPE svg PUBLIC "-//W3C//DTD SVG 1.1//EN" "http://www.w3.org/Graphics/SVG/1.1/DTD/svg11.dtd">
<svg version="1.1" id="SPARKS_FULL_STACK_LOGO" xmlns="http://www.w3.org/2000/svg" xmlns:xlink="http://www.w3.org/1999/xlink"
	 x="0px" y="0px" viewBox="0 0 1000 250" enable-background="new 0 0 1000 250" xml:space="preserve">
<g>
	<g>
		<g>
			<path fill="#1E1E1E" d="M260.1,108.3l-12.4,0.8c-0.5-1.7-1.6-3.2-3.4-4.4c-1.8-1.2-4-1.8-6.4-1.8c-3,0-5.5,0.6-7.4,1.8
				c-1.9,1.2-2.8,2.9-2.8,5c0,2.1,0.9,3.7,2.8,4.7c1.9,1.1,4.9,2.1,8.9,3c6.2,1.5,10.9,3,14.2,4.5c2,1,3.5,2,4.6,3
				c2.3,2.4,3.4,5.4,3.3,8.9c-0.2,5.4-2.3,9.6-6.4,12.6c-4.1,3-9.7,4.5-17,4.5c-6.9,0-12.4-1.3-16.8-4c-4.3-2.6-6.8-6.4-7.5-11.4
				l12.3-1.1c0.7,2.4,2.1,4.3,4.3,5.5c2.3,1.3,4.8,1.9,7.6,1.9c3.1,0,5.7-0.7,7.8-2c2.1-1.3,3.1-3,3.1-5.3c0-1.5-0.6-2.8-1.8-4
				c-1.2-1.2-2.8-2.2-4.8-2.9c-1.7-0.7-4.1-1.3-7-2c-3.7-0.9-6.8-1.8-9.2-2.6c-2.3-0.8-4.3-1.7-6.1-3c-1.7-1.2-3-2.6-3.7-4.3
				c-0.7-1.6-1.1-3.7-1.1-6.2c0-5.1,2-9.1,6.1-11.8c4.1-2.7,9.6-4.1,16.7-4.1c6.3,0,11.3,1.2,15.1,3.7
				C257.2,100.1,259.5,103.7,260.1,108.3z"/>
			<path fill="#1E1E1E" d="M299.9,151.2c-4.8,0-9.1-0.8-12.8-2.5c-3.7-1.7-6.4-4-8.1-7v29.1h-12.4V94.7h11.8l0.5,8.8
				c3.3-6.4,10.2-9.6,20.9-9.6c4.8-0.1,9.2,1.1,13.3,3.6c4.1,2.5,7.4,6,9.8,10.4c2.4,4.4,3.6,9.3,3.5,14.6c0.1,4-0.6,7.8-2,11.4
				c-1.4,3.6-3.3,6.7-5.7,9.2c-2.4,2.5-5.3,4.5-8.6,6C306.9,150.6,303.5,151.3,299.9,151.2z M296.6,104.5c-4.8,0-9,1.7-12.4,5.1
				c-3.4,3.5-5.1,7.8-5.1,12.9c0,5.2,1.7,9.5,5.1,12.9c3.4,3.5,7.5,5.2,12.4,5.2c4.8,0,9-1.7,12.4-5.1c3.4-3.4,5.1-7.7,5.1-13
				c0-5.2-1.7-9.5-5.1-12.9C305.6,106.2,301.4,104.5,296.6,104.5z"/>
			<path fill="#1E1E1E" d="M356.7,93.9c4.8,0,9.1,0.9,12.7,2.6c3.7,1.7,6.4,4.1,8.1,7.1l0.5-8.8h11.8v55.7H378l-0.5-8.8
				c-3.3,6.4-10.2,9.6-20.8,9.6c-3.6,0.1-7-0.6-10.3-2.1c-3.3-1.5-6.1-3.5-8.6-6c-2.4-2.5-4.3-5.6-5.7-9.2c-1.4-3.6-2.1-7.4-2-11.4
				c-0.1-5.3,1.1-10.2,3.5-14.6c2.4-4.4,5.7-7.9,9.8-10.4C347.5,95,351.9,93.8,356.7,93.9z M359.9,140.6c4.9,0,9.1-1.7,12.5-5.2
				c3.4-3.4,5.1-7.7,5.1-12.9c0-5.2-1.7-9.5-5.1-12.9c-3.4-3.4-7.6-5.1-12.5-5.1c-4.8,0-8.9,1.7-12.4,5.1c-3.4,3.4-5.1,7.7-5.1,12.9
				c0,5.2,1.7,9.5,5.1,12.9C351,138.9,355.1,140.6,359.9,140.6z"/>
			<path fill="#1E1E1E" d="M397.7,150.4V94.7h11.8l0.6,7.3c2.4-3.2,5.2-5.3,8.3-6.4c3-1.1,7.1-1.7,12.3-1.7v10.5
				c-6.5,0-11.5,1.6-15.1,4.9c-3.6,3.3-5.4,7.7-5.4,13.1v27.8H397.7z"/>
			<path fill="#1E1E1E" d="M474.1,94.7h15.6l-22.9,23.7l22.9,31.9h-14.4l-16.8-23.3l-8.4,8.7v14.6h-12.3V74.5h12.3v45.1L474.1,94.7z
				"/>
			<path fill="#1E1E1E" d="M535,108.3l-12.4,0.8c-0.5-1.7-1.6-3.2-3.4-4.4c-1.8-1.2-4-1.8-6.4-1.8c-3,0-5.5,0.6-7.4,1.8
				c-1.9,1.2-2.8,2.9-2.8,5c0,2.1,0.9,3.7,2.8,4.7c1.9,1.1,4.9,2.1,8.9,3c6.2,1.5,10.9,3,14.2,4.5c2,1,3.5,2,4.6,3
				c2.3,2.4,3.4,5.4,3.3,8.9c-0.2,5.4-2.3,9.6-6.4,12.6c-4.1,3-9.7,4.5-17,4.5c-6.9,0-12.4-1.3-16.8-4c-4.3-2.6-6.8-6.4-7.5-11.4
				l12.3-1.1c0.7,2.4,2.1,4.3,4.3,5.5c2.3,1.3,4.8,1.9,7.6,1.9c3.1,0,5.7-0.7,7.8-2c2.1-1.3,3.1-3,3.1-5.3c0-1.5-0.6-2.8-1.8-4
				c-1.2-1.2-2.8-2.2-4.8-2.9c-1.7-0.7-4.1-1.3-7-2c-3.7-0.9-6.8-1.8-9.2-2.6c-2.3-0.8-4.3-1.7-6.1-3c-1.7-1.2-3-2.6-3.7-4.3
				s-1.1-3.7-1.1-6.2c0-5.1,2-9.1,6.1-11.8c4.1-2.7,9.6-4.1,16.7-4.1c6.3,0,11.3,1.2,15.1,3.7C532.1,100.1,534.3,103.7,535,108.3z"
				/>
			<path fill="#1E1E1E" d="M558.3,94.7h16.2v4.7h-16.2v51h-5.7v-51h-9.1v-4.7h9.1V89c0-5.1,1-8.9,2.9-11.3c1.9-2.4,5.2-3.6,9.7-3.6
				c2.9,0,5.9,0.3,9.2,1v4.4c-2.9-0.7-5.8-1-8.7-0.7c-2.7,0.1-4.6,0.9-5.8,2.5c-1.2,1.6-1.7,4.2-1.7,7.6V94.7z"/>
			<path fill="#1E1E1E" d="M585.2,94.7h5.7v27.8c0,7.8,1.4,13.7,4.1,17.5c2.7,3.9,7.1,5.8,13,5.8c6.6,0,11.7-2.2,15.4-6.5
				c3.7-4.3,5.5-10,5.5-16.9V94.7h5.7v55.7h-5.5L629,137c-1.8,4.5-4.6,8-8.4,10.4c-3.8,2.4-8.5,3.6-14.1,3.6
				c-7.5,0-12.9-2.5-16.3-7.4c-3.4-4.9-5-11.9-5-21.1V94.7z"/>
			<path fill="#1E1E1E" d="M645.5,150.4V74.5h5.7v75.9H645.5z"/>
			<path fill="#1E1E1E" d="M663,150.4V74.5h5.7v75.9H663z"/>
			<path fill="#1E1E1E" d="M681.2,125.1v-5h23.1v5H681.2z"/>
			<path fill="#1E1E1E" d="M755.6,106.1l-5.7,0.8c-0.7-2.3-2.4-4.3-4.9-5.8c-2.5-1.5-5.4-2.3-8.7-2.3c-4,0-7.3,0.9-10.1,2.7
				c-2.7,1.8-4.1,4.5-4.1,7.9c-0.2,2.9,1.2,5.2,4.2,6.9c1.4,0.9,3.9,1.8,7.3,2.7c0.8,0.2,2.4,0.6,4.9,1.2c3.5,0.8,6.2,1.6,8.2,2.3
				c2,0.7,3.9,1.6,5.6,2.7c3.3,2.2,5,5.5,4.9,9.8c0,4.8-2,8.7-5.8,11.6c-3.8,2.9-8.7,4.3-14.6,4.3c-5.6,0-10.3-1.1-14.3-3.3
				c-4-2.1-6.6-5.3-7.7-9.6l5.6-0.8c0.7,2.1,2,3.8,3.8,5.2c1.8,1.4,3.8,2.4,6,3c2.1,0.6,4.3,0.8,6.6,0.8c4.1,0,7.6-1,10.4-3
				c2.8-2,4.3-4.6,4.3-8c-0.1-2-0.7-3.7-1.7-5c-1-1.3-2.6-2.4-4.8-3.3c-2.5-1-5.8-2-9.9-2.9c-5.3-1.3-9.3-2.6-12-4
				c-1.6-0.8-2.9-1.7-3.8-2.6c-1.9-2-2.9-4.7-2.9-8c0-4.8,1.8-8.6,5.5-11.4c3.7-2.7,8.6-4.1,14.5-4.1c4.9,0,9,1,12.4,3.1
				C752.2,99.3,754.5,102.2,755.6,106.1z"/>
			<path fill="#1E1E1E" d="M770,94.7V81.9h5.7v12.9h16.2v4.7h-16.2v36.1c0,3.4,0.6,6,1.8,7.6c1.2,1.6,3.1,2.5,5.8,2.6
				c3.1,0.2,5.9-0.1,8.6-0.8v4.9c-3.3,0.7-6.4,1-9.2,1c-4.5,0-7.8-1.2-9.7-3.7c-2-2.5-2.9-6.3-2.9-11.6V99.4h-9.1v-4.7H770z"/>
			<path fill="#1E1E1E" d="M822.5,94.1c5.6,0,10.6,1.3,15,3.9c4.3,2.6,7.5,6.1,9.5,10.5l0.2-13.7h5.5v55.7h-5.5l-0.2-13.8
				c-1.9,4.5-5,8.1-9.4,10.6c-4.4,2.5-9.4,3.8-15.1,3.8c-5.1,0-9.7-1.3-13.9-3.8c-4.3-2.5-7.6-5.9-10-10.3
				c-2.5-4.3-3.7-9.1-3.7-14.4s1.2-10.1,3.7-14.4c2.4-4.3,5.8-7.7,10-10.3C812.8,95.4,817.4,94.1,822.5,94.1z M823.8,146
				c6.4,0,11.9-2.3,16.5-6.8c4.5-4.6,6.8-10.1,6.8-16.6c0-6.6-2.3-12.1-6.8-16.7c-4.6-4.5-10.1-6.8-16.4-6.8
				c-4.1-0.1-7.9,0.9-11.5,3c-3.6,2.1-6.4,5-8.6,8.7s-3.1,7.6-3.1,11.8c-0.1,4.2,1,8.1,3.1,11.7c2.1,3.6,5,6.5,8.6,8.6
				C815.9,145.1,819.7,146.1,823.8,146z"/>
			<path fill="#1E1E1E" d="M890.5,146.1c3.8,0,7.3-0.8,10.6-2.5c3.2-1.7,5.9-4.1,7.9-7.1l5.1,2.4c-2.5,3.8-5.9,6.8-10.1,8.9
				c-4.2,2.2-8.7,3.3-13.5,3.3c-3.9,0-7.6-0.7-11.2-2.2c-3.6-1.4-6.7-3.4-9.3-6c-2.6-2.5-4.7-5.5-6.2-9.1c-1.5-3.6-2.3-7.3-2.3-11.2
				s0.8-7.7,2.3-11.2c1.5-3.6,3.6-6.6,6.2-9.1c2.6-2.5,5.7-4.5,9.3-6c3.6-1.4,7.3-2.2,11.2-2.2c4.8,0,9.4,1.1,13.5,3.3
				c4.2,2.2,7.6,5.2,10.1,8.9l-5.1,2.4c-2.1-3-4.7-5.4-8-7.1c-3.2-1.7-6.7-2.5-10.5-2.5c-6.5,0-11.9,2.3-16.5,6.8
				c-4.5,4.5-6.8,10.1-6.8,16.7s2.3,12.2,6.8,16.7S884.1,146.1,890.5,146.1z"/>
			<path fill="#1E1E1E" d="M963.2,94.7h8.4l-26.3,24.7l26.3,31h-7.4l-23.1-27l-10.6,9.9v17.1h-5.7V74.5h5.7v50.8L963.2,94.7z"/>
		</g>
		<g>
			<path fill="#1E1E1E" d="M552.6,175.7V160H563v1.7h-8.3v5.6h7.6v1.7h-7.6v6.7H552.6z"/>
			<path fill="#1E1E1E" d="M576.9,170.2V160h2.1v10.1c0,1.8-0.5,3.2-1.6,4.3c-1.1,1-2.5,1.5-4.2,1.5c-1.7,0-3.1-0.5-4.2-1.5
				c-1.1-1-1.6-2.4-1.6-4.3V160h2.1v10.2c0,1.1,0.3,2,1,2.7c0.7,0.7,1.6,1,2.6,1c1.1,0,2-0.3,2.6-1
				C576.6,172.2,576.9,171.3,576.9,170.2z"/>
			<path fill="#1E1E1E" d="M592.9,175.7h-9.5V160h2.1v14h7.3V175.7z"/>
			<path fill="#1E1E1E" d="M606.7,175.7h-9.5V160h2.1v14h7.3V175.7z"/>
			<path fill="#1E1E1E" d="M611.1,170.4v-1.7h5.6v1.7H611.1z"/>
			<path fill="#1E1E1E" d="M631.7,163.6l-2.1,0.2c-0.2-0.7-0.7-1.3-1.2-1.7c-0.6-0.4-1.2-0.6-2-0.6c-1,0-1.7,0.2-2.3,0.7
				c-0.6,0.5-0.9,1.1-0.9,2c0,0.3,0,0.7,0.2,0.9c0.2,0.3,0.4,0.5,0.7,0.7c0.1,0.1,0.4,0.2,0.7,0.4c0.3,0.1,0.6,0.2,0.8,0.3
				c0,0,0.3,0.1,0.9,0.3c0.4,0.1,0.9,0.3,1.4,0.5c0.2,0.1,0.7,0.2,1.2,0.5c0.5,0.2,0.8,0.4,1.1,0.5c0.2,0.1,0.5,0.3,0.8,0.6
				c0.4,0.3,0.7,0.7,0.8,1.1c0.2,0.4,0.3,1,0.3,1.6c0,1.4-0.5,2.5-1.6,3.2c-1,0.8-2.4,1.1-4.1,1.1c-1.6,0-2.9-0.4-4-1.1
				c-1.1-0.7-1.7-1.7-1.9-3l2.1-0.2c0.2,0.8,0.6,1.4,1.3,1.9c0.7,0.4,1.5,0.7,2.4,0.7c1,0,1.9-0.2,2.5-0.7c0.6-0.4,1-1.1,1-1.9
				c0.1-0.8-0.3-1.5-1.2-2.1c-0.2-0.2-0.5-0.3-0.9-0.5c-0.4-0.2-0.7-0.3-1-0.4c-0.1,0-0.3-0.1-0.5-0.2c-0.2-0.1-0.4-0.1-0.6-0.2
				c-0.7-0.2-1.1-0.4-1.2-0.4c-0.4-0.1-0.7-0.3-1-0.4c-0.4-0.2-0.7-0.3-0.9-0.4c-0.3-0.2-0.5-0.3-0.7-0.5c-0.3-0.3-0.6-0.6-0.7-1
				c-0.1-0.4-0.2-0.9-0.3-1.5c0-1.4,0.5-2.4,1.5-3.2c1-0.8,2.3-1.1,3.8-1.1c1.4,0,2.5,0.3,3.5,1
				C630.8,161.4,631.4,162.3,631.7,163.6z"/>
			<path fill="#1E1E1E" d="M634.6,160h10.8v1.7H641v14h-2.1v-14h-4.3V160z"/>
			<path fill="#1E1E1E" d="M660.1,175.7H658l-1.1-3.2h-7.5l-1.1,3.2h-2.1l5.4-15.8h3.1L660.1,175.7z M653.1,161.7l-3.1,9h6.3
				L653.1,161.7z"/>
			<path fill="#1E1E1E" d="M670.2,173.9c1,0,2-0.2,2.9-0.7c0.9-0.5,1.6-1.1,2.1-2l1.9,0.9c-0.7,1.2-1.7,2.1-2.9,2.7
				c-1.2,0.7-2.6,1-4,1c-1.5,0-2.9-0.3-4.1-1c-1.3-0.7-2.2-1.7-3-2.9c-0.7-1.2-1.1-2.6-1.1-4.1s0.4-2.9,1.1-4.1s1.7-2.2,3-2.9
				c1.2-0.7,2.6-1,4.1-1c1.4,0,2.8,0.3,4,1c1.2,0.7,2.2,1.6,2.9,2.7l-1.9,0.9c-0.5-0.8-1.3-1.5-2.1-2c-0.9-0.5-1.8-0.7-2.9-0.7
				c-1.1,0-2.1,0.3-3,0.8c-0.9,0.5-1.7,1.3-2.2,2.2c-0.5,0.9-0.8,2-0.8,3.1c0,1.1,0.3,2.1,0.8,3.1c0.5,0.9,1.3,1.7,2.2,2.2
				C668.1,173.6,669.1,173.9,670.2,173.9z"/>
			<path fill="#1E1E1E" d="M690,160h2.3l-5.4,7.2l5.4,8.6H690l-4.5-6.9l-2.4,3.2v3.7h-2.1V160h2.1v9.1L690,160z"/>
			<path fill="#1E1E1E" d="M712.5,163.6l-2.1,0.2c-0.2-0.7-0.7-1.3-1.2-1.7c-0.6-0.4-1.2-0.6-2-0.6c-1,0-1.7,0.2-2.3,0.7
				c-0.6,0.5-0.9,1.1-0.9,2c0,0.3,0,0.7,0.2,0.9s0.4,0.5,0.7,0.7c0.1,0.1,0.4,0.2,0.7,0.4c0.3,0.1,0.6,0.2,0.8,0.3
				c0,0,0.3,0.1,0.9,0.3c0.4,0.1,0.9,0.3,1.4,0.5c0.2,0.1,0.7,0.2,1.2,0.5c0.5,0.2,0.8,0.4,1.1,0.5c0.2,0.1,0.5,0.3,0.8,0.6
				c0.4,0.3,0.7,0.7,0.8,1.1c0.2,0.4,0.3,1,0.3,1.6c0,1.4-0.5,2.5-1.6,3.2c-1,0.8-2.4,1.1-4.1,1.1c-1.6,0-2.9-0.4-4-1.1
				c-1.1-0.7-1.7-1.7-1.9-3l2.1-0.2c0.2,0.8,0.6,1.4,1.3,1.9c0.7,0.4,1.5,0.7,2.4,0.7c1,0,1.9-0.2,2.5-0.7c0.6-0.4,1-1.1,1-1.9
				c0.1-0.8-0.3-1.5-1.2-2.1c-0.2-0.2-0.5-0.3-0.9-0.5c-0.4-0.2-0.7-0.3-1-0.4c-0.1,0-0.3-0.1-0.5-0.2c-0.2-0.1-0.4-0.1-0.6-0.2
				c-0.7-0.2-1.1-0.4-1.2-0.4c-0.4-0.1-0.7-0.3-1-0.4c-0.4-0.2-0.7-0.3-0.9-0.4c-0.3-0.2-0.5-0.3-0.7-0.5c-0.3-0.3-0.6-0.6-0.7-1
				c-0.1-0.4-0.2-0.9-0.3-1.5c0-1.4,0.5-2.4,1.5-3.2c1-0.8,2.3-1.1,3.8-1.1c1.4,0,2.5,0.3,3.5,1
				C711.7,161.4,712.3,162.3,712.5,163.6z"/>
			<path fill="#1E1E1E" d="M724.5,175.9c-1.5,0-2.9-0.3-4.1-1c-1.3-0.7-2.2-1.7-3-2.9c-0.7-1.2-1.1-2.6-1.1-4.1s0.4-2.9,1.1-4.1
				s1.7-2.2,3-2.9c1.2-0.7,2.6-1,4.1-1c1.1,0,2.2,0.2,3.2,0.6c1,0.4,1.9,1,2.6,1.7c0.7,0.7,1.3,1.6,1.7,2.6c0.4,1,0.6,2.1,0.6,3.2
				c0,1.1-0.2,2.2-0.6,3.2c-0.4,1-1,1.9-1.7,2.6c-0.7,0.7-1.6,1.3-2.6,1.7C726.6,175.7,725.6,175.9,724.5,175.9z M724.5,173.9
				c0.8,0,1.6-0.2,2.3-0.5c0.7-0.3,1.4-0.7,1.9-1.3c0.5-0.5,1-1.2,1.3-1.9c0.3-0.8,0.5-1.5,0.5-2.4c0-1.1-0.2-2.1-0.8-3
				c-0.5-0.9-1.3-1.7-2.2-2.2s-1.9-0.8-3-0.8c-1.1,0-2.1,0.3-3.1,0.8c-0.9,0.5-1.7,1.3-2.2,2.2c-0.5,0.9-0.8,2-0.8,3.1
				c0,0.8,0.2,1.6,0.5,2.4c0.3,0.8,0.7,1.4,1.3,1.9c0.6,0.5,1.2,1,1.9,1.3C722.9,173.7,723.6,173.9,724.5,173.9z"/>
			<path fill="#1E1E1E" d="M736.2,175.7V160h10.4v1.7h-8.3v5.6h7.6v1.7h-7.6v6.7H736.2z"/>
			<path fill="#1E1E1E" d="M750.6,160h10.8v1.7H757v14h-2.1v-14h-4.3V160z"/>
			<path fill="#1E1E1E" d="M781.3,173.3l4-13.4h2.4l-5,15.8h-2.7L776,163l-4.1,12.7h-2.6l-5-15.8h2.4l4,13.4l4.1-13.4h2.4
				L781.3,173.3z"/>
			<path fill="#1E1E1E" d="M802.3,175.7h-2.1l-1.1-3.2h-7.5l-1.1,3.2h-2.1l5.4-15.8h3.1L802.3,175.7z M795.3,161.7l-3.1,9h6.3
				L795.3,161.7z"/>
			<path fill="#1E1E1E" d="M817.3,165.3c0,1.2-0.3,2.3-1,3.2c-0.7,0.9-1.6,1.5-2.8,1.9l3.4,5.3h-2.2l-3.2-5h-3.7v5h-2.1V160h5.9
				c1.7,0,3.1,0.5,4.1,1.5C816.8,162.5,817.3,163.8,817.3,165.3z M811.5,161.7h-3.6v7.3h3.6c1,0,1.9-0.4,2.7-1.1
				c0.7-0.7,1.1-1.6,1.1-2.6c0-1-0.3-1.9-1.1-2.6C813.4,162,812.5,161.7,811.5,161.7z"/>
			<path fill="#1E1E1E" d="M821.3,175.7V160h10.2v1.7h-8.1v5.6h7.4v1.7h-7.4v5h8.4v1.7H821.3z"/>
			<path fill="#1E1E1E" d="M853,163.6l-2.1,0.2c-0.2-0.7-0.7-1.3-1.2-1.7c-0.6-0.4-1.2-0.6-2-0.6c-1,0-1.7,0.2-2.3,0.7
				c-0.6,0.5-0.9,1.1-0.9,2c0,0.3,0,0.7,0.2,0.9c0.2,0.3,0.4,0.5,0.7,0.7c0.1,0.1,0.4,0.2,0.7,0.4c0.3,0.1,0.6,0.2,0.8,0.3
				c0,0,0.3,0.1,0.9,0.3c0.4,0.1,0.9,0.3,1.4,0.5c0.2,0.1,0.7,0.2,1.2,0.5c0.5,0.2,0.8,0.4,1.1,0.5c0.2,0.1,0.5,0.3,0.8,0.6
				c0.4,0.3,0.7,0.7,0.8,1.1c0.2,0.4,0.3,1,0.3,1.6c0,1.4-0.5,2.5-1.6,3.2c-1,0.8-2.4,1.1-4.1,1.1c-1.6,0-2.9-0.4-4-1.1
				c-1.1-0.7-1.7-1.7-1.9-3l2.1-0.2c0.2,0.8,0.6,1.4,1.3,1.9c0.7,0.4,1.5,0.7,2.4,0.7c1,0,1.9-0.2,2.5-0.7c0.6-0.4,1-1.1,1-1.9
				c0.1-0.8-0.3-1.5-1.2-2.1c-0.2-0.2-0.5-0.3-0.9-0.5c-0.4-0.2-0.7-0.3-1-0.4c-0.1,0-0.3-0.1-0.5-0.2c-0.2-0.1-0.4-0.1-0.6-0.2
				c-0.7-0.2-1.1-0.4-1.2-0.4c-0.4-0.1-0.7-0.3-1-0.4c-0.4-0.2-0.7-0.3-0.9-0.4c-0.3-0.2-0.5-0.3-0.7-0.5c-0.3-0.3-0.6-0.6-0.7-1
				c-0.1-0.4-0.2-0.9-0.3-1.5c0-1.4,0.5-2.4,1.5-3.2c1-0.8,2.3-1.1,3.8-1.1c1.4,0,2.5,0.3,3.5,1C852.2,161.4,852.8,162.3,853,163.6z
				"/>
			<path fill="#1E1E1E" d="M864.9,175.9c-1.5,0-2.9-0.3-4.1-1c-1.3-0.7-2.2-1.7-3-2.9c-0.7-1.2-1.1-2.6-1.1-4.1s0.4-2.9,1.1-4.1
				s1.7-2.2,3-2.9c1.2-0.7,2.6-1,4.1-1c1.1,0,2.2,0.2,3.2,0.6c1,0.4,1.9,1,2.6,1.7c0.7,0.7,1.3,1.6,1.7,2.6c0.4,1,0.6,2.1,0.6,3.2
				c0,1.1-0.2,2.2-0.6,3.2c-0.4,1-1,1.9-1.7,2.6c-0.7,0.7-1.6,1.3-2.6,1.7C867.1,175.7,866,175.9,864.9,175.9z M864.9,173.9
				c0.8,0,1.6-0.2,2.3-0.5c0.7-0.3,1.4-0.7,1.9-1.3c0.5-0.5,1-1.2,1.3-1.9c0.3-0.8,0.5-1.5,0.5-2.4c0-1.1-0.2-2.1-0.8-3
				c-0.5-0.9-1.3-1.7-2.2-2.2c-0.9-0.5-1.9-0.8-3-0.8c-1.1,0-2.1,0.3-3.1,0.8c-0.9,0.5-1.7,1.3-2.2,2.2c-0.5,0.9-0.8,2-0.8,3.1
				c0,0.8,0.2,1.6,0.5,2.4c0.3,0.8,0.7,1.4,1.3,1.9c0.6,0.5,1.2,1,1.9,1.3C863.4,173.7,864.1,173.9,864.9,173.9z"/>
			<path fill="#1E1E1E" d="M886.2,175.7h-9.5V160h2.1v14h7.3V175.7z"/>
			<path fill="#1E1E1E" d="M898.8,170.2V160h2.1v10.1c0,1.8-0.5,3.2-1.6,4.3c-1.1,1-2.5,1.5-4.2,1.5c-1.7,0-3.1-0.5-4.2-1.5
				c-1.1-1-1.6-2.4-1.6-4.3V160h2.1v10.2c0,1.1,0.3,2,1,2.7c0.7,0.7,1.6,1,2.6,1c1.1,0,2-0.3,2.6-1
				C898.5,172.2,898.8,171.3,898.8,170.2z"/>
			<path fill="#1E1E1E" d="M904.9,160h10.8v1.7h-4.3v14h-2.1v-14h-4.3V160z"/>
			<path fill="#1E1E1E" d="M919.5,175.7V160h2.1v15.8H919.5z"/>
			<path fill="#1E1E1E" d="M933.5,175.9c-1.5,0-2.9-0.3-4.1-1c-1.3-0.7-2.2-1.7-3-2.9c-0.7-1.2-1.1-2.6-1.1-4.1s0.4-2.9,1.1-4.1
				s1.7-2.2,3-2.9c1.2-0.7,2.6-1,4.1-1c1.1,0,2.2,0.2,3.2,0.6c1,0.4,1.9,1,2.6,1.7c0.7,0.7,1.3,1.6,1.7,2.6c0.4,1,0.6,2.1,0.6,3.2
				c0,1.1-0.2,2.2-0.6,3.2c-0.4,1-1,1.9-1.7,2.6c-0.7,0.7-1.6,1.3-2.6,1.7C935.6,175.7,934.6,175.9,933.5,175.9z M933.5,173.9
				c0.8,0,1.6-0.2,2.3-0.5c0.7-0.3,1.4-0.7,1.9-1.3c0.5-0.5,1-1.2,1.3-1.9c0.3-0.8,0.5-1.5,0.5-2.4c0-1.1-0.2-2.1-0.8-3
				c-0.5-0.9-1.3-1.7-2.2-2.2s-1.9-0.8-3-0.8c-1.1,0-2.1,0.3-3.1,0.8c-0.9,0.5-1.7,1.3-2.2,2.2c-0.5,0.9-0.8,2-0.8,3.1
				c0,0.8,0.2,1.6,0.5,2.4c0.3,0.8,0.7,1.4,1.3,1.9c0.6,0.5,1.2,1,1.9,1.3C931.9,173.7,932.6,173.9,933.5,173.9z"/>
			<path fill="#1E1E1E" d="M955.6,172.8V160h2.1v15.8h-2.8l-7.5-12.8v12.8h-2.1V160h2.8L955.6,172.8z"/>
			<path fill="#1E1E1E" d="M972.7,163.6l-2.1,0.2c-0.2-0.7-0.7-1.3-1.2-1.7c-0.6-0.4-1.2-0.6-2-0.6c-1,0-1.7,0.2-2.3,0.7
				c-0.6,0.5-0.9,1.1-0.9,2c0,0.3,0,0.7,0.2,0.9c0.2,0.3,0.4,0.5,0.7,0.7c0.1,0.1,0.4,0.2,0.7,0.4c0.3,0.1,0.6,0.2,0.8,0.3
				c0,0,0.3,0.1,0.9,0.3c0.4,0.1,0.9,0.3,1.4,0.5c0.2,0.1,0.7,0.2,1.2,0.5c0.5,0.2,0.8,0.4,1.1,0.5c0.2,0.1,0.5,0.3,0.8,0.6
				c0.4,0.3,0.7,0.7,0.8,1.1c0.2,0.4,0.3,1,0.3,1.6c0,1.4-0.5,2.5-1.6,3.2c-1,0.8-2.4,1.1-4.1,1.1c-1.6,0-2.9-0.4-4-1.1
				c-1.1-0.7-1.7-1.7-1.9-3l2.1-0.2c0.2,0.8,0.6,1.4,1.3,1.9c0.7,0.4,1.5,0.7,2.4,0.7c1,0,1.9-0.2,2.5-0.7c0.6-0.4,1-1.1,1-1.9
				c0.1-0.8-0.3-1.5-1.2-2.1c-0.2-0.2-0.5-0.3-0.9-0.5c-0.4-0.2-0.7-0.3-1-0.4c-0.1,0-0.3-0.1-0.5-0.2c-0.2-0.1-0.4-0.1-0.6-0.2
				c-0.7-0.2-1.1-0.4-1.2-0.4c-0.4-0.1-0.7-0.3-1-0.4c-0.4-0.2-0.7-0.3-0.9-0.4c-0.3-0.2-0.5-0.3-0.7-0.5c-0.3-0.3-0.6-0.6-0.7-1
				c-0.1-0.4-0.2-0.9-0.3-1.5c0-1.4,0.5-2.4,1.5-3.2c1-0.8,2.3-1.1,3.8-1.1c1.4,0,2.5,0.3,3.5,1
				C971.8,161.4,972.4,162.3,972.7,163.6z"/>
		</g>
	</g>
	<linearGradient id="SVGID_1_" gradientUnits="userSpaceOnUse" x1="26.8443" y1="125" x2="186.9308" y2="125">
		<stop  offset="0" style="stop-color:#00E1F3"/>
		<stop  offset="1" style="stop-color:#1577CD"/>
	</linearGradient>
	<path fill="url(#SVGID_1_)" d="M145.4,54.8l1.4-32l-15.6,25.9c-7.7-2.4-15.8-3.8-24.3-3.8c-44.2,0-80,35.8-80,80
		c0,29.4,15.8,55,39.4,69l3.4,33.2l14.5-25.4c7.2,2.1,14.8,3.3,22.8,3.3c44.2,0,80-35.8,80-80C186.9,94.7,170.1,68.4,145.4,54.8z"/>
	<path fill="#FFFFFF" d="M39.2,125c0-37.7,30.7-68.3,68.3-68.3c0.8,0,1.6,0,2.4,0.1l5.3-6.2c-2.5-0.3-5.1-0.4-7.7-0.4
		c-41.3,0-74.8,33.6-74.8,74.8c0,30.1,17.9,56.1,43.6,68l2.3-6.1C55.4,176,39.2,152.4,39.2,125z"/>
	<path fill="#FFFFFF" d="M138.7,57l-2.3,6.1c23.3,10.9,39.4,34.5,39.4,61.9c0,37.7-30.7,68.3-68.3,68.3c-0.8,0-1.6,0-2.4-0.1
		l-5.3,6.2c2.5,0.3,5.1,0.4,7.7,0.4c41.3,0,74.8-33.6,74.8-74.8C182.4,94.9,164.5,68.9,138.7,57z"/>
	<g>
		<polygon fill="#FFFFFF" points="104.1,136.1 69.6,227.2 157,126 56.8,133.6 		"/>
		<polygon fill="#FFFFFF" points="112.3,113.9 146.8,22.8 59.4,124 159.5,116.4 		"/>
	</g>
</g>
</svg>
